<svg xmlns="http://www.w3.org/2000/svg" viewBox="0 0 23.82 44.42"><g id="레이어_2" data-name="레이어 2"><g id="레이어_1-2" data-name="레이어 1"><path d="M23.82,31.47v-.33c0-18.32-8.13-26.37-10.13-28a2.78,2.78,0,0,0-.44-.35l0,0a1.07,1.07,0,0,0,.23-.62v-1a.83.83,0,0,0,0-.15A1.22,1.22,0,0,0,11,1.12v1a1,1,0,0,0,.14.49.87.87,0,0,0-.56.15l-.19.14C9,4-.09,11.92,0,31.29v.19a1.25,1.25,0,0,0,1.09,1.35h0a1.25,1.25,0,0,0,1.08-1.38v-.32a5.41,5.41,0,0,1,4.23-1.8,5.15,5.15,0,0,1,4.48,2.14,1.22,1.22,0,0,0,.55.48v3.46a.53.53,0,0,0,0,.12,1.12,1.12,0,0,0-.53.94v3.44a2.51,2.51,0,0,1-.52,1.65,2.17,2.17,0,0,1-1.64.58,2,2,0,0,1-2-2.26,1.14,1.14,0,0,0-1.14-1.12h0A1.12,1.12,0,0,0,4.48,39.9a4.3,4.3,0,0,0,4.33,4.52,4.33,4.33,0,0,0,3.31-1.34,4.74,4.74,0,0,0,1.11-3.3V36.47a1.14,1.14,0,0,0-.59-1,.24.24,0,0,0,0-.08V31.84a1.1,1.1,0,0,0,.35-.36,5.19,5.19,0,0,1,4.47-2.12,5.47,5.47,0,0,1,4.15,1.7v.39a1.26,1.26,0,0,0,1.09,1.38h0a1.23,1.23,0,0,0,1.09-1.35ZM2.26,28.09C2.94,15.27,8,8.65,10.41,6.23c-2.14,4.72-4,11.5-3.92,20.84H6.42A8.78,8.78,0,0,0,2.26,28.09Zm5.43-.93s0,0,0,0c-.07-9,1.71-15.5,3.75-20v21.5A8.07,8.07,0,0,0,7.69,27.16Zm5,1.38V7c2.08,4.48,3.91,11,3.85,20.17v0A8.33,8.33,0,0,0,12.66,28.54Zm5.05-1.44c.06-8.84-1.58-15.4-3.57-20.08,2.56,2.92,6.8,9.43,7.42,21.06A8.71,8.71,0,0,0,17.71,27.1Z" style="fill:#fff"/></g></g></svg>