<svg xmlns="http://www.w3.org/2000/svg" viewBox="0 0 45.29 47.42"><g id="레이어_2" data-name="레이어 2"><g id="레이어_1-2" data-name="레이어 1"><path d="M45.25,25.61a22.53,22.53,0,0,0-4.91-12.2,4.62,4.62,0,0,0,1.17-6.34h0s0,0,0,0a4.87,4.87,0,0,0-.58-.71A30.59,30.59,0,0,1,37.51,0a26.45,26.45,0,0,1-3.07,6.26,4.8,4.8,0,0,0-1,1.37,22.5,22.5,0,0,0-9.33-2.72V4.13a1.22,1.22,0,0,0-2.44,0v.76A22.78,22.78,0,0,0,0,25.78a1.21,1.21,0,0,0,2.14.85,5.32,5.32,0,0,1,4.14-1.77A5.16,5.16,0,0,1,10.67,27a1.22,1.22,0,0,0,1,.57h0a1.2,1.2,0,0,0,1-.57,5.16,5.16,0,0,1,4.39-2.12,5,5,0,0,1,4.48,2.28l.05.06V42.91a2.51,2.51,0,0,1-.53,1.66,2.19,2.19,0,0,1-1.63.58,2,2,0,0,1-2-2.26,1.13,1.13,0,0,0-1.14-1.13h0a1.14,1.14,0,0,0-1.13,1.14,4.31,4.31,0,0,0,4.33,4.52,4.33,4.33,0,0,0,3.32-1.33,4.72,4.72,0,0,0,1.1-3.3v-16a5.23,5.23,0,0,1,4.25-1.94A5.18,5.18,0,0,1,32.55,27a1.2,1.2,0,0,0,1,.57h0a1.19,1.19,0,0,0,1-.57A5.2,5.2,0,0,1,39,24.89a5.32,5.32,0,0,1,4.14,1.77,1.2,1.2,0,0,0,.94.45h0a1.21,1.21,0,0,0,1.21-1.21A.92.92,0,0,0,45.25,25.61ZM39.06,11.35a1.79,1.79,0,0,0,.68-2.2.48.48,0,0,1,.2-.65.49.49,0,0,1,.66.19,2.78,2.78,0,0,1-.9,3.4.47.47,0,0,1-.39.11l-.4-.41A.47.47,0,0,1,39.06,11.35ZM6.28,22.45a8.48,8.48,0,0,0-3.46.73A20.41,20.41,0,0,1,18.73,7.65c-3,2.49-7.25,7.6-7.54,16.39A8.06,8.06,0,0,0,6.28,22.45Zm10.83,0a8.09,8.09,0,0,0-4.7,1.45c.4-10.23,6.48-15.1,8.77-16.58.32,0,.64,0,1-.05V24.14A8.13,8.13,0,0,0,17.11,22.45Zm11.05,0A8.15,8.15,0,0,0,23.34,24V7.28l.67,0c2.28,1.48,8.36,6.35,8.78,16.56A8.19,8.19,0,0,0,28.16,22.48Zm10.83,0a8.05,8.05,0,0,0-5,1.66c-.26-8.88-4.59-14-7.56-16.52A20.29,20.29,0,0,1,33,10.16a4.65,4.65,0,0,0,4.6,4.13l.3,0a20.29,20.29,0,0,1,4.53,9A8.37,8.37,0,0,0,39,22.48Z" style="fill:#fff"/></g></g></svg>