<svg xmlns="http://www.w3.org/2000/svg" viewBox="0 0 42.62 42.62"><g id="레이어_2" data-name="레이어 2"><g id="레이어_1-2" data-name="레이어 1"><path id="laugh-beam-solid" d="M21.31,0A21.31,21.31,0,1,0,42.62,21.31h0A21.29,21.29,0,0,0,21.32,0Zm2.06,17.14c.29-3.62,2.77-6.14,4.82-6.14s4.53,2.52,4.81,6.14a.68.68,0,0,1-1.28.38l-.82-1.46c-.66-1.18-1.66-2.24-2.71-2.24s-2,1.06-2.7,2.24l-.82,1.46a.7.7,0,0,1-1,.23A.71.71,0,0,1,23.37,17.14Zm-13.74,0C9.91,13.52,12.39,11,14.44,11s4.53,2.52,4.81,6.14a.68.68,0,0,1-1.28.38l-.82-1.46c-.66-1.18-1.66-2.24-2.71-2.24s-2,1.06-2.7,2.24l-.82,1.46a.7.7,0,0,1-1,.24A.71.71,0,0,1,9.63,17.14Zm24.65,8.47A12.39,12.39,0,0,1,22,36.44H20.62A12.41,12.41,0,0,1,8.34,25.61a1.38,1.38,0,0,1,1.21-1.54H32.91a1.37,1.37,0,0,1,1.38,1.37A1.09,1.09,0,0,1,34.28,25.61Z" style="fill:#fff"/></g></g></svg>