<svg xmlns="http://www.w3.org/2000/svg" viewBox="0 0 44.86 42.35"><g id="레이어_2" data-name="레이어 2"><g id="레이어_1-2" data-name="레이어 1"><path d="M41,34.67,20.28,14a4.88,4.88,0,0,1-1.4-3.78A9.46,9.46,0,0,0,6.36.52l6,6c.15,2.34-3.48,6-5.84,5.84l-6-6a9.46,9.46,0,0,0,9.67,12.52A4.81,4.81,0,0,1,14,20.28L34.67,41A4.46,4.46,0,1,0,41,34.67Zm-3.37,4.72a1.84,1.84,0,1,1,1.83-1.84A1.84,1.84,0,0,1,37.61,39.39Zm-13-25.62L35.32,3.1A5.59,5.59,0,0,1,43.23,11L32.56,21.67l-1.94-1.94L40.81,9.55a.81.81,0,0,0,0-1.14.8.8,0,0,0-1.14,0L29.48,18.6l-1.65-1.66L38,6.75a.8.8,0,0,0,0-1.14.81.81,0,0,0-1.14,0L26.69,15.8Zm-5.6,16.16-7.88,7.88a5.41,5.41,0,0,0-1.06,1.45l-.57,1.08-3.92,2L4.06,40.79l1.92-4,1.09-.57a6,6,0,0,0,1.45-1.07l7.87-7.87Z" style="fill:#fff;isolation:isolate"/></g></g></svg>