<svg xmlns="http://www.w3.org/2000/svg" viewBox="0 0 34.2 47.72"><g id="레이어_2" data-name="레이어 2"><g id="레이어_1-2" data-name="레이어 1"><path d="M30.53,20.27l-.39-.62-.89-1.39c-1.45-2.29-2.82-4.54-4.07-6.67-.88-1.49-1.69-2.91-2.43-4.23-1.37-2.43-2.48-4.5-3.27-6A2.55,2.55,0,0,0,17.24,0h0A2.55,2.55,0,0,0,15,1.35c-.81,1.49-2,3.57-3.34,6-.7,1.22-1.47,2.53-2.29,3.91C8,13.5,6.53,15.91,4.94,18.34c-.25.4-.51.79-.78,1.19s-.35.54-.51.8c-4.56,7.35-4.38,13.61-2,18.25a16.33,16.33,0,0,0,4.61,5.48,17.75,17.75,0,0,0,5.59,2.86,18,18,0,0,0,5.19.8h.08a17.87,17.87,0,0,0,5.27-.8,17.56,17.56,0,0,0,5.45-2.77,16.12,16.12,0,0,0,4.89-5.88C34.94,33.66,35,27.49,30.53,20.27ZM5.47,21.45c.15-.25.31-.49.47-.74.27-.4.53-.81.79-1.21,1.45-2.22,2.95-4.63,4.46-7.15.74-1.25,1.5-2.54,2.3-3.94,1.14-2,2.24-4,3.36-6.05a.44.44,0,0,1,.38-.23.46.46,0,0,1,.37.23c.67,1.28,1.79,3.38,3.29,6.05.84,1.5,1.65,2.9,2.45,4.27,1.39,2.35,2.77,4.61,4.11,6.72l.14.22c.25.4.51.8.76,1.18l.37.59c3.22,5.2,3.76,9.43,3.13,12.73,0,.21-.1.4-.15.61a5.35,5.35,0,0,0-6.4.92,3,3,0,0,1-2.08.87h0a3,3,0,0,1-2.09-.87,5.42,5.42,0,0,0-7.67,0,3,3,0,0,1-2.1.87h0a3,3,0,0,1-2.1-.87,5.4,5.4,0,0,0-6.67-.78c-.06-.25-.14-.49-.19-.75C1.72,30.83,2.26,26.62,5.47,21.45Zm21.08,21a15.61,15.61,0,0,1-9.44,3.14H17a15.57,15.57,0,0,1-9.49-3.23A14.49,14.49,0,0,1,3.4,37.28a2.94,2.94,0,0,1,1.95-.76h0a2.9,2.9,0,0,1,2.08.87,5.43,5.43,0,0,0,7.68,0,2.94,2.94,0,0,1,2.09-.87h0a2.94,2.94,0,0,1,2.09.87,5.43,5.43,0,0,0,7.68,0,2.9,2.9,0,0,1,2.08-.87h0a2.9,2.9,0,0,1,1.73.58A14.41,14.41,0,0,1,26.55,42.45Z" style="fill:#fff"/></g></g></svg>