<svg xmlns="http://www.w3.org/2000/svg" viewBox="0 0 34.19 47.72"><g id="레이어_2" data-name="레이어 2"><g id="레이어_1-2" data-name="레이어 1"><path d="M11.84,46.92H22.38a17.87,17.87,0,0,1-5.27.8H17A18,18,0,0,1,11.84,46.92Zm20.88-8.65a16.12,16.12,0,0,1-4.89,5.88,17.56,17.56,0,0,1-5.45,2.77H11.84a17.75,17.75,0,0,1-5.59-2.86,16.33,16.33,0,0,1-4.61-5.48c-2.37-4.64-2.55-10.9,2-18.25.16-.26.33-.53.51-.8L5,18.34C6.53,15.91,8,13.5,9.35,11.26c.82-1.38,1.59-2.69,2.29-3.91C13,4.92,14.17,2.84,15,1.35A2.55,2.55,0,0,1,17.23,0h0a2.55,2.55,0,0,1,2.24,1.37c.79,1.49,1.9,3.56,3.27,6,.74,1.32,1.55,2.74,2.43,4.23,1.25,2.13,2.62,4.38,4.07,6.67l.89,1.39.39.62a28.11,28.11,0,0,1,2.29,4.55c.17.44.32.88.46,1.31A16.12,16.12,0,0,1,32.72,38.27ZM4.32,23.48a5.19,5.19,0,0,1,1-.1A5.37,5.37,0,0,1,9.21,25a3,3,0,0,0,2.1.87h0a3,3,0,0,0,2.1-.87,5.42,5.42,0,0,1,7.67,0,3,3,0,0,0,2.09.87h0A3,3,0,0,0,25.3,25a5.37,5.37,0,0,1,3.84-1.59,5.84,5.84,0,0,1,.73.05c-.34-.66-.72-1.34-1.15-2l-.37-.59c-.25-.38-.51-.78-.76-1.18l-.14-.22c-1.34-2.11-2.72-4.37-4.11-6.72-.8-1.37-1.61-2.77-2.45-4.27-1.5-2.67-2.62-4.77-3.29-6.05a.46.46,0,0,0-.37-.23.44.44,0,0,0-.38.23c-1.12,2.08-2.22,4.06-3.36,6.05-.8,1.4-1.56,2.69-2.3,3.94-1.51,2.52-3,4.93-4.46,7.15-.26.4-.52.81-.79,1.21-.16.25-.32.49-.47.74C5,22.14,4.66,22.82,4.32,23.48ZM31,36.9a3,3,0,0,0-1.81-.65h0a3,3,0,0,0-2.08.87,5.43,5.43,0,0,1-7.68,0,3,3,0,0,0-2.09-.87h0a3,3,0,0,0-2.09.87,5.43,5.43,0,0,1-7.68,0,3,3,0,0,0-2.08-.87h0a3,3,0,0,0-2,.84,14.41,14.41,0,0,0,4.24,5.27A15.57,15.57,0,0,0,17,45.59h.07a15.61,15.61,0,0,0,9.44-3.14A14.43,14.43,0,0,0,31,36.9Zm.88-2.78a14.81,14.81,0,0,0-.6-7.41h0a3,3,0,0,0-2.08-.86h0A2.93,2.93,0,0,0,27,26.7a5.41,5.41,0,0,1-7.68,0,3,3,0,0,0-2.09-.86h0a3,3,0,0,0-2.09.86,5.43,5.43,0,0,1-7.68,0,2.93,2.93,0,0,0-2.08-.86h0a3,3,0,0,0-2.08.86,1.25,1.25,0,0,1-.39.27,14.48,14.48,0,0,0-.53,7.15h0c0,.18.09.34.13.52a5.38,5.38,0,0,1,6.73.75,3,3,0,0,0,2.1.86h0a3,3,0,0,0,2.1-.86,5.4,5.4,0,0,1,7.67,0,3,3,0,0,0,2.09.86h0a3,3,0,0,0,2.08-.86,5.35,5.35,0,0,1,6.46-.9" style="fill:#fff"/></g></g></svg>