<svg xmlns="http://www.w3.org/2000/svg" viewBox="0 0 14.58 41.21"><g id="레이어_2" data-name="레이어 2"><g id="레이어_1-2" data-name="레이어 1"><path d="M11.73,28.14V4.44a4.44,4.44,0,0,0-8.88,0v23.7a7.29,7.29,0,0,0,3.6,13,7.63,7.63,0,0,0,.82,0,7.29,7.29,0,0,0,4.46-13.07Zm-.72,10a5.56,5.56,0,0,1-4.37,1.39,5.59,5.59,0,0,1-2.46-10.2.83.83,0,0,0,.38-.7V4.44a2.73,2.73,0,1,1,5.46,0V28.58a.83.83,0,0,0,.38.7A5.58,5.58,0,0,1,11,38.09Zm-.31-4.83c0-.14-.08-.29-.13-.42s-.07-.15-.1-.22a3.9,3.9,0,0,0-.19-.35l-.14-.21a3.88,3.88,0,0,0-.26-.31l-.15-.17-.36-.29-.13-.1a4.4,4.4,0,0,0-.56-.31l-.12,0c-.14-.05-.27-.1-.42-.14V20.85a.85.85,0,1,0-1.7,0V30.7c-.15,0-.28.09-.42.14l-.12,0a4.4,4.4,0,0,0-.56.31l-.13.1c-.12.09-.25.19-.36.29l-.15.17a3.88,3.88,0,0,0-.26.31l-.14.21a3.9,3.9,0,0,0-.19.35c0,.07-.07.14-.1.22s-.09.28-.13.42a1.46,1.46,0,0,0,0,.2,3.71,3.71,0,0,0-.07.67,3.53,3.53,0,0,0,7.06,0,3.71,3.71,0,0,0-.07-.67C10.74,33.39,10.71,33.33,10.7,33.26ZM7.29,36a1.83,1.83,0,1,1,1.83-1.82A1.83,1.83,0,0,1,7.29,36Z" style="fill:#fff"/></g></g></svg>