<svg xmlns="http://www.w3.org/2000/svg" viewBox="0 0 14.58 41.21"><g id="레이어_2" data-name="레이어 2"><g id="레이어_1-2" data-name="레이어 1"><path d="M11.73,28.14V4.44a4.44,4.44,0,0,0-8.88,0v23.7a7.29,7.29,0,0,0,3.6,13,7.63,7.63,0,0,0,.82,0,7.29,7.29,0,0,0,4.46-13.07Zm-.72,10a5.56,5.56,0,0,1-4.37,1.39,5.59,5.59,0,0,1-2.46-10.2.83.83,0,0,0,.38-.7V4.44a2.73,2.73,0,1,1,5.46,0V28.58a.83.83,0,0,0,.38.7A5.58,5.58,0,0,1,11,38.09ZM8.23,30.74V7.85a.94.94,0,0,0-1.88,0V30.74a3.53,3.53,0,1,0,1.88,0ZM7.29,36a1.83,1.83,0,1,1,1.83-1.82A1.83,1.83,0,0,1,7.29,36Z" style="fill:#fff"/></g></g></svg>