<svg xmlns="http://www.w3.org/2000/svg" viewBox="0 0 34.19 47.72"><g id="레이어_2" data-name="레이어 2"><g id="레이어_1-2" data-name="레이어 1"><path d="M33.28,26.13c-.14-.43-.29-.86-.46-1.3a27,27,0,0,0-2.29-4.56l-.39-.62-.89-1.39c-.53-.83-1-1.65-1.54-2.46s-.86-1.41-1.28-2.11-.85-1.41-1.25-2.1c-.88-1.49-1.69-2.91-2.43-4.23-1.37-2.43-2.48-4.5-3.27-6A2.55,2.55,0,0,0,17.24,0h0A2.55,2.55,0,0,0,15,1.35c-.81,1.49-2,3.57-3.34,6-.7,1.22-1.47,2.53-2.29,3.91-.45.76-.93,1.55-1.42,2.34S7.07,15,6.62,15.71c-.54.87-1.1,1.75-1.68,2.63-.25.4-.51.79-.78,1.19s-.35.54-.51.8c-4.56,7.35-4.38,13.61-2,18.25a16.33,16.33,0,0,0,4.61,5.48,17.75,17.75,0,0,0,5.59,2.86,18,18,0,0,0,5.19.8h.08a17.87,17.87,0,0,0,5.27-.8,17.56,17.56,0,0,0,5.45-2.77,16.12,16.12,0,0,0,4.89-5.88A16.12,16.12,0,0,0,33.28,26.13Zm-30.93,8h0A14.58,14.58,0,0,1,2.87,27a1.15,1.15,0,0,0,.4-.26,3,3,0,0,1,2.08-.87h0a2.94,2.94,0,0,1,2.08.87,5.43,5.43,0,0,0,7.68,0,3,3,0,0,1,2.09-.87h0a3,3,0,0,1,2.09.87,5.43,5.43,0,0,0,7.68,0,2.94,2.94,0,0,1,2.08-.87h0a3,3,0,0,1,2.08.87h0a14.78,14.78,0,0,1,.6,7.4h0c0,.13-.06.25-.09.37a5.35,5.35,0,0,0-6.46.9,3,3,0,0,1-2.08.86h0a3,3,0,0,1-2.09-.86,5.4,5.4,0,0,0-7.67,0,3,3,0,0,1-2.1.86h0a3,3,0,0,1-2.1-.86,5.38,5.38,0,0,0-6.73-.75C2.44,34.46,2.39,34.3,2.35,34.12Zm8.84-21.77c.74-1.25,1.5-2.54,2.3-3.94,1.14-2,2.24-4,3.36-6.05a.44.44,0,0,1,.38-.23.46.46,0,0,1,.37.23c.67,1.28,1.79,3.38,3.29,6.05.84,1.5,1.65,2.9,2.45,4.27L24.72,15a2.91,2.91,0,0,1-1.5.43h0a2.94,2.94,0,0,1-2.09-.87,5.42,5.42,0,0,0-7.67,0,3,3,0,0,1-2.1.87h0a2.89,2.89,0,0,1-1.67-.52C10.15,14.06,10.67,13.22,11.19,12.35Zm-5.72,9.1c.15-.25.31-.49.47-.74.27-.4.53-.81.79-1.21.53-.81,1.07-1.65,1.61-2.51a5.43,5.43,0,0,0,6.81-.7,3,3,0,0,1,2.09-.87h0a3,3,0,0,1,2.09.87,5.42,5.42,0,0,0,6.65.8q.72,1.18,1.44,2.31l.14.22c.25.4.51.8.76,1.18l.37.59c.43.7.81,1.38,1.15,2.05a4.4,4.4,0,0,0-.73-.06A5.41,5.41,0,0,0,25.3,25a2.93,2.93,0,0,1-2.08.87h0A2.94,2.94,0,0,1,21.09,25a5.42,5.42,0,0,0-7.67,0,3,3,0,0,1-2.1.87h0A3,3,0,0,1,9.21,25a5.41,5.41,0,0,0-3.84-1.59,6,6,0,0,0-1,.1C4.65,22.82,5,22.14,5.47,21.45Zm21.08,21a15.61,15.61,0,0,1-9.44,3.14H17a15.57,15.57,0,0,1-9.49-3.23,14.41,14.41,0,0,1-4.24-5.27,3,3,0,0,1,2-.84h0a3,3,0,0,1,2.08.87,5.43,5.43,0,0,0,7.68,0,3,3,0,0,1,2.09-.87h0a3,3,0,0,1,2.09.87,5.43,5.43,0,0,0,7.68,0,3,3,0,0,1,2.08-.87h0A3,3,0,0,1,31,36.9,14.43,14.43,0,0,1,26.55,42.45Z" style="fill:#fff"/></g></g></svg>