<svg xmlns="http://www.w3.org/2000/svg" viewBox="0 0 44.04 44.04"><g id="레이어_2" data-name="레이어 2"><g id="레이어_1-2" data-name="레이어 1"><path id="패스_77" data-name="패스 77" d="M22,0A22,22,0,1,0,44,22h0A22,22,0,0,0,22,0ZM12.08,20.6A2.8,2.8,0,0,1,13,18.52l-2.75-.82A1.42,1.42,0,0,1,11.07,15l7.1,2.13a1.42,1.42,0,0,1-.41,2.78h-.15a2.5,2.5,0,0,1,.15.72,2.85,2.85,0,0,1-5.69,0ZM27,34.29a6.68,6.68,0,0,0-9.43-.52,6.38,6.38,0,0,0-.52.52,1.42,1.42,0,0,1-2.18-1.82A9.3,9.3,0,0,1,28,31.27a9.14,9.14,0,0,1,1.21,1.2A1.42,1.42,0,1,1,27,34.29Zm6.8-16.59L31,18.52a2.83,2.83,0,1,1-3.83,4.17,2.8,2.8,0,0,1-.92-2.09,2.32,2.32,0,0,1,.15-.73l-.15,0a1.42,1.42,0,0,1-.41-2.78L33,15a1.42,1.42,0,0,1,.81,2.72Z" style="fill:#fff"/></g></g></svg>