<svg xmlns="http://www.w3.org/2000/svg" viewBox="0 0 17.794 20.336">
  <path id="calendar-alt-regular" d="M5.878,11.439H4.29a.478.478,0,0,1-.477-.477V9.374A.478.478,0,0,1,4.29,8.9H5.878a.478.478,0,0,1,.477.477v1.589A.478.478,0,0,1,5.878,11.439Zm4.29-.477V9.374A.478.478,0,0,0,9.691,8.9H8.1a.478.478,0,0,0-.477.477v1.589a.478.478,0,0,0,.477.477H9.691A.478.478,0,0,0,10.168,10.962Zm3.813,0V9.374A.478.478,0,0,0,13.5,8.9H11.916a.478.478,0,0,0-.477.477v1.589a.478.478,0,0,0,.477.477H13.5A.478.478,0,0,0,13.981,10.962Zm-3.813,3.813V13.187a.478.478,0,0,0-.477-.477H8.1a.478.478,0,0,0-.477.477v1.589a.478.478,0,0,0,.477.477H9.691A.478.478,0,0,0,10.168,14.775Zm-3.813,0V13.187a.478.478,0,0,0-.477-.477H4.29a.478.478,0,0,0-.477.477v1.589a.478.478,0,0,0,.477.477H5.878A.478.478,0,0,0,6.355,14.775Zm7.626,0V13.187a.478.478,0,0,0-.477-.477H11.916a.478.478,0,0,0-.477.477v1.589a.478.478,0,0,0,.477.477H13.5A.478.478,0,0,0,13.981,14.775ZM17.794,4.448V18.429a1.907,1.907,0,0,1-1.906,1.906H1.906A1.907,1.907,0,0,1,0,18.429V4.448A1.907,1.907,0,0,1,1.906,2.542H3.813V.477A.478.478,0,0,1,4.29,0H5.878a.478.478,0,0,1,.477.477V2.542h5.084V.477A.478.478,0,0,1,11.916,0H13.5a.478.478,0,0,1,.477.477V2.542h1.906A1.907,1.907,0,0,1,17.794,4.448ZM15.887,18.191V6.355H1.906V18.191a.239.239,0,0,0,.238.238h13.5A.239.239,0,0,0,15.887,18.191Z" fill="#48affb"/>
</svg>
