<svg xmlns="http://www.w3.org/2000/svg" width="14" height="14" viewBox="0 0 14 14">
  <g id="그룹_573" data-name="그룹 573" transform="translate(-352 -843)">
    <g id="패스_221" data-name="패스 221" transform="translate(352 843)" fill="#3f96d7">
      <path d="M 11 13.5 L 3 13.5 C 1.621500015258789 13.5 0.5 12.37849998474121 0.5 11 L 0.5 3 C 0.5 1.621500015258789 1.621500015258789 0.5 3 0.5 L 11 0.5 C 12.37849998474121 0.5 13.5 1.621500015258789 13.5 3 L 13.5 6.148049831390381 L 13.5 11 C 13.5 12.37849998474121 12.37849998474121 13.5 11 13.5 Z" stroke="none"/>
      <path d="M 3 1 C 1.897199630737305 1 1 1.897199630737305 1 3 L 1 11 C 1 12.1028003692627 1.897199630737305 13 3 13 L 11 13 C 12.1028003692627 13 13 12.1028003692627 13 11 L 13 6.148049831390381 L 13 3 C 13 1.897199630737305 12.1028003692627 1 11 1 L 3 1 M 3 0 L 11 0 C 12.65684986114502 0 14 1.34315013885498 14 3 L 14 6.148049831390381 L 14 11 C 14 12.65684986114502 12.65684986114502 14 11 14 L 3 14 C 1.34315013885498 14 0 12.65684986114502 0 11 L 0 3 C 0 1.34315013885498 1.34315013885498 0 3 0 Z" stroke="none" fill="#3f96d7"/>
    </g>
    <path id="check-solid" d="M3,71.562.13,68.689a.442.442,0,0,1,0-.625l.625-.625a.442.442,0,0,1,.625,0l1.936,1.936,4.146-4.146a.442.442,0,0,1,.625,0l.625.625a.442.442,0,0,1,0,.625L3.629,71.562a.442.442,0,0,1-.625,0Z" transform="translate(354.778 781.605)" fill="#fff"/>
  </g>
</svg>
