<svg xmlns="http://www.w3.org/2000/svg" width="20" height="20" viewBox="0 0 20 20">
  <g id="그룹_825" data-name="그룹 825" transform="translate(0 0.36)">
    <g id="패스_221" data-name="패스 221" transform="translate(0 -0.36)" fill="#9fa4bc">
      <path d="M 15.71428966522217 19.5 L 4.285709857940674 19.5 C 2.198260068893433 19.5 0.5 17.8017406463623 0.5 15.71428966522217 L 0.5 4.285709857940674 C 0.5 2.198260068893433 2.198260068893433 0.5 4.285709857940674 0.5 L 15.71428966522217 0.5 C 17.8017406463623 0.5 19.5 2.198260068893433 19.5 4.285709857940674 L 19.5 8.782930374145508 L 19.5 15.71428966522217 C 19.5 17.8017406463623 17.8017406463623 19.5 15.71428966522217 19.5 Z" stroke="none"/>
      <path d="M 4.285710334777832 1 C 2.473960876464844 1 1 2.473960876464844 1 4.285710334777832 L 1 15.71429061889648 C 1 17.52603912353516 2.473960876464844 19 4.285710334777832 19 L 15.71429061889648 19 C 17.52603912353516 19 19 17.52603912353516 19 15.71429061889648 L 19 8.782930374145508 L 19 4.285710334777832 C 19 2.473960876464844 17.52603912353516 1 15.71429061889648 1 L 4.285710334777832 1 M 4.285710334777832 0 L 15.71429061889648 0 C 18.08122062683105 0 20 1.918779373168945 20 4.285710334777832 L 20 8.782930374145508 L 20 15.71429061889648 C 20 18.08122062683105 18.08122062683105 20 15.71429061889648 20 L 4.285710334777832 20 C 1.918779373168945 20 0 18.08122062683105 0 15.71429061889648 L 0 4.285710334777832 C 0 1.918779373168945 1.918779373168945 0 4.285710334777832 0 Z" stroke="none" fill="#9fa4bc"/>
    </g>
    <path id="check-solid" d="M4.831,75.5.209,70.874a.711.711,0,0,1,0-1.006l1.006-1.006a.711.711,0,0,1,1.006,0l3.114,3.114L12,65.307a.711.711,0,0,1,1.006,0l1.006,1.006a.711.711,0,0,1,0,1.006L5.837,75.5a.711.711,0,0,1-1.006,0Z" transform="translate(3 -60.458)" fill="#fff"/>
  </g>
</svg>
